<?xml version="1.0" encoding="UTF-8" standalone="no"?>
<svg
   version="1.1"
   id="Layer_1"
   x="0px"
   y="0px"
   width="190.26868"
   viewBox="0 0 190.26868 181.14186"
   enable-background="new 0 0 350 350"
   xml:space="preserve"
   sodipodi:docname="x-logo-dark-bg.svg"
   height="181.14186"
   inkscape:version="1.2.1 (9c6d41e410, 2022-07-14)"
   xmlns:inkscape="http://www.inkscape.org/namespaces/inkscape"
   xmlns:sodipodi="http://sodipodi.sourceforge.net/DTD/sodipodi-0.dtd"
   xmlns="http://www.w3.org/2000/svg"
   xmlns:svg="http://www.w3.org/2000/svg"><defs
   id="defs224" /><sodipodi:namedview
   id="namedview222"
   pagecolor="#ffffff"
   bordercolor="#000000"
   borderopacity="0.25"
   inkscape:showpageshadow="2"
   inkscape:pageopacity="0.0"
   inkscape:pagecheckerboard="0"
   inkscape:deskcolor="#d1d1d1"
   showgrid="false"
   inkscape:zoom="2.3685714"
   inkscape:cx="131.51387"
   inkscape:cy="89.927624"
   inkscape:window-width="1920"
   inkscape:window-height="1009"
   inkscape:window-x="1912"
   inkscape:window-y="-8"
   inkscape:window-maximized="1"
   inkscape:current-layer="Layer_1" />
<style>
  path#path215 {
    fill: #142440;
  }
  @media (prefers-color-scheme: dark) {
      path#path215 {
        fill: #ffffff;
      }
    }
</style>
<path
   opacity="1"
   stroke="none"
   d="m 65.332019,163.46266 c -4.10922,5.75619 -7.99549,11.22033 -11.94854,16.63568 -0.36306,0.49734 -1.15177,0.97027 -1.74431,0.97207 -16.91222,0.0518 -33.824625,0.0417 -51.639169,0.0417 9.729103,-12.88866 18.841705,-25.07722 28.079629,-37.17004 12.47646,-16.33223 25.00999,-32.62136 37.61493,-48.854538 2.42737,-3.12608 2.64575,-5.60178 0.0703,-8.93549 -14.24019,-18.43253 -28.28512,-37.01627 -42.3538,-55.5809 C 15.937149,20.708802 8.550468,10.780354 0.543953,0.10803709 h 25.956026 c 7.3886,0 15.00109,-0.109358 22.47712,-0.108025002004 C 52.807539,6.95088e-4 54.945319,1.2358061 57.128319,4.1614421 77.774499,31.831252 98.539439,59.412672 119.3521,86.957652 c 1.76917,2.34143 2.06827,3.86601 0.0785,6.43919 -12.70308,16.427998 -25.119441,33.077278 -37.744171,49.566438 -5.23854,6.84212 -10.75798,13.46918 -16.35445,20.49938 z"
   id="path215"
   sodipodi:nodetypes="csccsssscssssssc" />
<path
   fill="#1697d0"
   opacity="1"
   stroke="none"
   d="m 172.21436,156.9588 c 6.00019,7.94813 11.79068,15.60771 18.05433,23.89314 -1.94114,0.11569 -3.17142,0.25159 -4.40186,0.25278 -15.15469,0.0146 -30.31139,0.12719 -45.46176,-0.12891 -2.05841,-0.0348 -4.76111,-1.42212 -6.01979,-3.06238 -10.15464,-13.23306 -20.08416,-26.64076 -29.90824,-40.12205 -0.81312,-1.11583 -1.0829,-3.70157 -0.35852,-4.69913 7.98923,-11.00214 16.22553,-21.82485 24.94339,-33.426088 14.49298,19.238598 28.71788,38.121338 43.15245,57.292638 z"
   id="path217" />
<path
   fill="#1697d0"
   opacity="1"
   stroke="none"
   d="m 106.87046,38.897372 c 9.34546,-12.31936 18.45726,-24.36175 27.66802,-36.3279549 0.82295,-1.069168 2.28173,-2.33432001 3.45565,-2.34486401 16.90863,-0.151711 33.81905,-0.103798 51.75432,-0.103798 C 169.30524,27.324462 149.47622,53.710862 129.17718,80.722732 c -4.64885,-5.95171 -9.01641,-11.48499 -13.31761,-17.06937 -3.14467,-4.08282 -6.18361,-8.2469 -9.30275,-12.34964 -4.7053,-6.18909 -4.71756,-6.17976 0.31364,-12.40635 z"
   id="path219" />
</svg>
